<?xml version="1.0" standalone="no"?><!DOCTYPE svg PUBLIC "-//W3C//DTD SVG 1.1//EN" "http://www.w3.org/Graphics/SVG/1.1/DTD/svg11.dtd"><svg t="1779613046364" class="icon" viewBox="0 0 1024 1024" version="1.1" xmlns="http://www.w3.org/2000/svg" p-id="25286" id="mx_n_1779613046364" xmlns:xlink="http://www.w3.org/1999/xlink" width="256" height="256"><path d="M951.818027 646.061298c-3.830235 24.88783-11.498892 47.286979-19.158339 70.932516-10.220782 27.372418-22.997784 53.507658-38.32691 77.153194-16.607236 27.372418-35.774785 52.261271-60.041468 74.659397-10.220782 9.956769-22.997784 18.667152-38.32691 21.156856-22.997784 3.731998-45.995567-6.220678-57.489342-24.88783-7.664563-13.688767-10.220782-27.377534-6.390547-42.312688 1.278109-6.220678 6.390547-13.684674 11.498892-18.663058 7.668657-8.710382 15.33322-17.420765 22.997784-26.130124 20.436448-23.645536 37.043684-49.77566 49.820686-78.400604 11.498892-24.88783 20.441565-51.018977 25.549909-77.149101 3.834328-23.645536 6.386454-48.533366 5.112438-72.174809-1.278109-18.667152-3.834328-36.087916-7.664563-53.511751-5.108345-26.130124-14.055111-49.771567-26.828019-73.417103-10.220782-21.156856-22.997784-41.066301-38.32691-58.481949-12.777001-14.935154-25.554002-29.871331-40.883129-42.312688-15.329127-13.688767-33.213449-24.88783-51.098795-36.087916-21.715581-12.441357-44.712341-22.399149-67.706031-29.866215-21.719674-6.220678-43.434232-11.199063-66.432015-13.688767-12.777001-1.242294-24.275893-2.489704-37.048801-2.489704-31.93534 1.246387-63.875796 4.978385-94.538143 13.688767-33.213449 9.956769-63.871703 24.892947-93.254917 43.554982-24.275893 16.177448-44.712341 36.087916-65.153906 57.243749-31.93534 34.840506-53.655014 75.906807-66.432015 120.704083-5.108345 17.420765-8.942673 34.844599-10.220782 53.507658-2.556219 17.424858-2.556219 36.087916-2.556219 53.507658 1.278109 23.645536 5.112438 46.044686 11.498892 68.442812 6.386454 23.641443 16.607236 46.044686 28.106128 67.196425 11.498892 19.909445 24.275893 39.818891 39.60502 57.243749 8.942673 9.952676 19.163455 19.909445 26.828019 31.108508 20.436448 29.862121 7.664563 72.174809-31.940456 83.373873-19.163455 4.974291-37.043684 0-53.650921-12.446473-21.719674-17.420765-35.774785-41.066301-51.103912-62.21804-28.106128-41.066301-49.824779-84.621283-63.875796-131.903146-6.386454-21.156856-10.220782-43.554982-15.329127-64.711837-5.112438-24.88783-5.112438-51.018977-3.834328-75.906807 1.278109-21.151739 5.108345-43.554982 8.942673-64.706721 5.112438-28.619828 15.33322-57.243749 26.832112-84.621283 12.772908-28.615735 28.101012-55.997362 47.264467-80.885192 11.498892-14.931061 24.275893-28.619828 37.048801-43.550888 16.607236-18.667152 35.769668-34.844599 56.211233-49.77566 16.607236-12.441357 35.769668-23.641443 53.655014-33.598212 25.549909-13.688767 51.098795-24.88783 79.204923-33.598212 22.997784-7.468089 47.26856-12.446473 71.54036-16.177448 14.051017-1.242294 28.106128-2.489704 40.878013-3.731998 3.834328 0 3.834328 0 5.112438 0 14.055111 0 26.828019 0 40.883129 0 1.278109 0 2.552126 1.242294 3.830235 1.242294 31.93534 0 62.597687 6.220678 93.260034 13.688767 25.549909 6.220678 49.820686 14.931061 72.818469 26.130124 33.213449 14.935154 65.153906 33.602306 93.260034 57.243749 12.772908 9.952676 24.2718 19.909445 35.765575 31.108508 28.106128 28.623921 52.382021 59.728336 72.818469 94.573959 14.055111 24.88783 25.549909 49.77566 34.496675 77.153194 7.664563 24.88783 14.051017 49.771567 17.880229 75.906807 2.560312 28.619828 2.560312 55.997362 2.560312 83.373873C958.203458 611.220792 954.374246 628.640534 951.818027 646.061298zM454.864722 414.604786c6.390547-1.246387 11.498892 0 15.329127 7.468089 10.220782 22.399149 20.441565 44.797275 29.384237 67.196425 7.664563 16.177448 14.051017 32.355919 21.719674 48.529273 10.220782 23.645536 20.441565 47.286979 31.93534 70.932516 7.668657 16.177448 14.055111 32.351825 21.719674 48.529273 16.607236 37.334303-1.278109 80.885192-44.712341 92.084255-21.719674 6.220678-42.156122 1.246387-60.045561-13.688767-15.329127-13.688767-22.99369-29.862121-22.99369-51.018977-1.278109-41.066301-1.278109-83.373873-1.278109-125.682467 0-43.554982 0-87.10587 0-130.660852C445.923072 420.826488 448.479291 417.09449 454.864722 414.604786z" fill="#29f208" p-id="25287"></path></svg>